<?xml version="1.0" encoding="UTF-8"?>
<svg version="1.1" xmlns="http://www.w3.org/2000/svg" width="50" height="50">
<path d="M0 0 C5.56340585 3.36669624 9.53349183 8.25193794 11.5 14.4375 C12.30748036 22.29634955 12.5845749 30.01095518 7.5 36.4375 C3.64078844 40.68917375 0.43464548 43.1480051 -5.5 43.4375 C-5.60957031 42.75042969 -5.71914063 42.06335937 -5.83203125 41.35546875 C-5.99058594 40.45441406 -6.14914063 39.55335937 -6.3125 38.625 C-6.46332031 37.73167969 -6.61414063 36.83835938 -6.76953125 35.91796875 C-7.563841 33.22071371 -8.46740147 32.29189811 -10.5 30.4375 C-10.5 29.7775 -10.5 29.1175 -10.5 28.4375 C-9.87351562 28.26734375 -9.24703125 28.0971875 -8.6015625 27.921875 C-7.37566406 27.55835938 -7.37566406 27.55835938 -6.125 27.1875 C-5.31289063 26.95546875 -4.50078125 26.7234375 -3.6640625 26.484375 C-1.36804055 25.59917067 -1.36804055 25.59917067 -0.1875 23.47265625 C0.72116978 20.7827872 0.140257 19.19060512 -0.5 16.4375 C-0.53824623 14.10448014 -0.54574284 11.77038492 -0.5 9.4375 C-1.263125 9.7675 -2.02625 10.0975 -2.8125 10.4375 C-9.55810668 12.26681707 -16.08895186 12.35899029 -22.5 9.4375 C-22.479375 10.51 -22.45875 11.5825 -22.4375 12.6875 C-22.5 16.4375 -22.5 16.4375 -23.125 18.5625 C-23.63079592 20.54542019 -23.63079592 20.54542019 -23.125 23 C-20.58450823 26.81073765 -16.79582576 27.35028484 -12.5 28.4375 C-12.5 29.0975 -12.5 29.7575 -12.5 30.4375 C-15.58888522 32.49675681 -16.20935927 32.6765374 -19.6875 32.5625 C-20.945625 32.52125 -22.20375 32.48 -23.5 32.4375 C-21.18143083 33.98321278 -18.99361571 35.23368552 -16.5 36.4375 C-16.83 38.7475 -17.16 41.0575 -17.5 43.4375 C-23.43464548 43.1480051 -26.64078844 40.68917375 -30.5 36.4375 C-35.60146874 29.98960256 -35.39267733 22.31514738 -34.5 14.4375 C-32.83975359 8.22876787 -28.81992715 3.91038383 -23.5 0.4375 C-16.6484373 -2.96497672 -7.00474452 -3.15687713 0 0 Z " fill="#000000" transform="translate(36.5,3.5625)"/>
</svg>
